<?xml version="1.0" encoding="UTF-8" standalone="no"?>
<svg
   xmlns:vectornator="http://vectornator.io"
   xmlns:dc="http://purl.org/dc/elements/1.1/"
   xmlns:cc="http://creativecommons.org/ns#"
   xmlns:rdf="http://www.w3.org/1999/02/22-rdf-syntax-ns#"
   xmlns:svg="http://www.w3.org/2000/svg"
   xmlns="http://www.w3.org/2000/svg"
   xmlns:sodipodi="http://sodipodi.sourceforge.net/DTD/sodipodi-0.dtd"
   xmlns:inkscape="http://www.inkscape.org/namespaces/inkscape"
   height="512"
   style="clip-rule:evenodd;fill-rule:evenodd;stroke-linecap:round;stroke-linejoin:round"
   xml:space="preserve"
   width="1200"
   version="1.1"
   viewBox="0 0 1200 512"
   id="svg12"
   sodipodi:docname="HuaBB.svg"
   inkscape:version="1.0.1 (3bc2e813f5, 2020-09-07)"><sodipodi:namedview
   pagecolor="#ffffff"
   bordercolor="#666666"
   borderopacity="1"
   objecttolerance="10"
   gridtolerance="10"
   guidetolerance="10"
   inkscape:pageopacity="0"
   inkscape:pageshadow="2"
   inkscape:window-width="1920"
   inkscape:window-height="1017"
   id="namedview14"
   showgrid="false"
   inkscape:zoom="0.25"
   inkscape:cx="532.64977"
   inkscape:cy="1051.9778"
   inkscape:window-x="-8"
   inkscape:window-y="32"
   inkscape:window-maximized="1"
   inkscape:current-layer="svg12"
   inkscape:document-rotation="0"
   showguides="false" />
<metadata
   id="metadata2">
<vectornator:setting
   key="DimensionsVisible"
   value="1" />
<vectornator:setting
   key="PencilOnly"
   value="0" />
<vectornator:setting
   key="SnapToPoints"
   value="1" />
<vectornator:setting
   key="OutlineMode"
   value="0" />
<vectornator:setting
   key="CMYKEnabledKey"
   value="0" />
<vectornator:setting
   key="RulersVisible"
   value="1" />
<vectornator:setting
   key="SnapToEdges"
   value="1" />
<vectornator:setting
   key="GuidesVisible"
   value="1" />
<vectornator:setting
   key="DisplayWhiteBackground"
   value="0" />
<vectornator:setting
   key="doHistoryDisabled"
   value="0" />
<vectornator:setting
   key="SnapToGuides"
   value="1" />
<vectornator:setting
   key="TimeLapseWatermarkDisabled"
   value="0" />
<vectornator:setting
   key="Units"
   value="Pixels" />
<vectornator:setting
   key="DynamicGuides"
   value="1" />
<vectornator:setting
   key="IsolateActiveLayer"
   value="0" />
<vectornator:setting
   key="SnapToGrid"
   value="0" />
<rdf:RDF><cc:Work
     rdf:about=""><dc:format>image/svg+xml</dc:format><dc:type
       rdf:resource="http://purl.org/dc/dcmitype/StillImage" /><dc:title /></cc:Work></rdf:RDF></metadata>
<defs
   id="defs4" />

<g
   id="レイヤー 1"
   vectornator:layerName="レイヤー 1"
   transform="matrix(1.155248,0,0,1.155248,-509.03924,-842.1946)">
<path
   d="m 460.812,806.011 v 249.599 h 10.375 V 899.605 h 145.625 v 156.005 h 10.375 V 889.199 h -156 v -83.188 z m 623.998,0 v 249.599 h 166.38 V 889.199 h -124.78 v 10.406 h 114.4 V 1045.2 H 1095.19 V 806.011 Z m 208,0 v 249.599 h 166.38 V 889.199 h -124.78 v 10.406 h 114.4 V 1045.2 H 1303.19 V 806.011 Z M 668.812,889.199 V 1055.61 H 835.187 V 889.199 H 824.812 V 1045.2 H 679.187 V 889.199 Z m 208,0 v 10.406 h 155.998 v 24.304 l 10.38,-10.406 v -24.304 z m 166.378,62.906 -10.38,10.344 V 1045.2 H 887.187 V 941.199 H 1001.59 V 930.793 H 876.812 v 124.817 h 166.378 z m 12.37,-41.094 -62.716,62.782 -6.844,14.062 c -0.333,0.619 -0.196,1.226 0.375,1.844 0.571,0.618 1.178,0.771 1.844,0.437 l 14.561,-6.406 62.84,-62.812 z M 441.042,1106.36 v -20.83 l -0.41,-3.28 h 5.904 l 13.94,14.6 1.599,2.21 h 0.451 v -16.81 h 5.412 v 24.11 h -5.207 l -14.268,-14.84 -1.599,-1.93 h -0.41 v 16.77 z m 37.638,0 c -1.831,0 -3.191,-0.37 -4.079,-1.1 -0.888,-0.74 -1.333,-1.95 -1.333,-3.61 v -8.41 c 0,-0.41 0.035,-0.91 0.103,-1.49 0.068,-0.59 0.26,-1.17 0.574,-1.75 0.314,-0.57 0.847,-1.05 1.599,-1.43 0.752,-0.38 1.797,-0.58 3.136,-0.58 h 11.316 c 1.367,0 2.419,0.2 3.157,0.58 0.739,0.38 1.265,0.86 1.579,1.43 0.314,0.58 0.506,1.16 0.574,1.75 0.068,0.58 0.102,1.08 0.102,1.49 v 7.87 c 0,0.5 -0.034,1.04 -0.102,1.64 -0.068,0.61 -0.266,1.18 -0.595,1.73 -0.328,0.54 -0.86,0.99 -1.599,1.35 -0.738,0.35 -1.776,0.53 -3.116,0.53 z m 1.558,-3.52 h 8.2 c 1.34,0 2.009,-0.55 2.009,-1.64 v -8.04 c 0,-1.09 -0.669,-1.64 -2.009,-1.64 h -8.2 c -1.312,0 -1.968,0.55 -1.968,1.64 v 8.04 c 0,1.09 0.656,1.64 1.968,1.64 z m 33.702,3.52 c -1.366,0 -2.418,-0.18 -3.157,-0.53 -0.738,-0.36 -1.264,-0.81 -1.578,-1.35 -0.314,-0.55 -0.506,-1.12 -0.574,-1.73 -0.068,-0.6 -0.103,-1.14 -0.103,-1.64 v -7.87 c 0,-0.41 0.035,-0.91 0.103,-1.49 0.068,-0.59 0.26,-1.17 0.574,-1.75 0.314,-0.57 0.847,-1.05 1.599,-1.43 0.752,-0.38 1.797,-0.58 3.136,-0.58 h 8.815 c 1.805,0 3.219,0.18 4.244,0.52 1.025,0.34 1.749,0.89 2.173,1.66 0.424,0.76 0.635,1.79 0.635,3.07 v 6.07 h -7.175 c -2.46,0 -4.462,-0.05 -6.006,-0.16 -1.544,-0.11 -2.576,-0.18 -3.096,-0.21 v 2.26 c -0.027,1.09 0.629,1.64 1.968,1.64 h 2.091 c 1.477,0 2.918,-0.02 4.326,-0.06 1.408,-0.05 2.699,-0.1 3.874,-0.17 1.176,-0.07 2.119,-0.13 2.829,-0.18 l 1.64,2.66 c 0,0.85 -2.692,1.27 -8.077,1.27 z m -0.41,-10.58 h 11.275 v -2.62 c 0,-0.55 -0.061,-0.93 -0.184,-1.15 -0.123,-0.22 -0.485,-0.35 -1.087,-0.41 -0.601,-0.05 -1.626,-0.08 -3.075,-0.08 h -4.961 c -1.312,0 -1.968,0.55 -1.968,1.64 z m 20.828,10.58 v -18.37 h 3.362 l 1.025,0.5 c 0.793,-0.14 1.763,-0.26 2.911,-0.35 1.149,-0.1 2.515,-0.15 4.1,-0.15 h 2.05 c 0.793,0 1.558,0.11 2.296,0.31 0.739,0.21 1.285,0.5 1.64,0.88 0.711,-0.35 1.695,-0.64 2.952,-0.86 1.258,-0.22 2.898,-0.33 4.92,-0.33 h 2.05 c 1.367,0 2.419,0.2 3.157,0.58 0.739,0.38 1.265,0.86 1.579,1.43 0.314,0.58 0.506,1.16 0.574,1.75 0.068,0.58 0.102,1.08 0.102,1.49 v 13.12 h -5.002 v -13.2 c 0,-1.09 -0.655,-1.64 -1.968,-1.64 h -5.74 c -0.437,0 -0.737,0.06 -0.902,0.16 -0.164,0.11 -0.246,0.36 -0.246,0.74 v 13.94 h -5.002 v -13.2 c 0,-1.09 -0.655,-1.64 -1.968,-1.64 h -5.658 c -0.519,0 -0.854,0.05 -1.004,0.14 -0.15,0.1 -0.226,0.35 -0.226,0.76 v 13.94 z m 42.722,0 c -2.077,0 -3.58,-0.48 -4.51,-1.45 -0.929,-0.97 -1.394,-2.31 -1.394,-4 0,-1.78 0.486,-3.14 1.456,-4.1 0.97,-0.96 2.453,-1.44 4.448,-1.44 h 2.091 c 2.051,0 3.895,0.06 5.535,0.17 1.641,0.11 2.993,0.22 4.059,0.33 v -2.71 c 0,-0.25 -0.027,-0.5 -0.082,-0.76 -0.054,-0.26 -0.218,-0.47 -0.492,-0.63 -0.273,-0.17 -0.737,-0.25 -1.394,-0.25 h -2.05 c -2.979,0 -5.466,0.05 -7.462,0.14 -1.995,0.1 -3.348,0.19 -4.059,0.27 l -0.451,-3.12 c 0,-0.38 1.039,-0.61 3.116,-0.69 2.078,-0.08 5.549,-0.13 10.414,-0.13 h 2.05 c 1.367,0 2.419,0.2 3.157,0.58 0.739,0.38 1.265,0.86 1.579,1.43 0.314,0.58 0.506,1.16 0.574,1.75 0.068,0.58 0.102,1.08 0.102,1.49 v 13.12 h -3.362 l -1.599,-0.82 c -1.148,0.19 -2.528,0.38 -4.141,0.56 -1.612,0.17 -3.457,0.26 -5.535,0.26 z m 1.066,-3.52 h 9.389 c 0.602,0 0.957,-0.06 1.066,-0.17 0.11,-0.11 0.164,-0.45 0.164,-1.02 v -3.16 h -10.619 c -0.738,0 -1.25,0.18 -1.537,0.53 -0.287,0.36 -0.431,0.92 -0.431,1.68 0,0.77 0.164,1.32 0.492,1.64 0.329,0.33 0.82,0.5 1.476,0.5 z m 23.247,-17.43 c -1.011,0 -1.749,-0.2 -2.214,-0.61 -0.464,-0.41 -0.697,-1.1 -0.697,-2.05 0,-0.99 0.226,-1.68 0.677,-2.07 0.451,-0.4 1.196,-0.6 2.234,-0.6 1.039,0 1.791,0.2 2.255,0.6 0.465,0.39 0.697,1.08 0.697,2.07 0,0.93 -0.232,1.6 -0.697,2.03 -0.464,0.42 -1.216,0.63 -2.255,0.63 z m -2.501,20.95 v -18.37 h 5.002 v 18.37 z m 10.783,0 v -22.71 l -0.41,-3.28 h 5.412 v 25.99 z m 24.231,0 c -2.077,0 -3.58,-0.48 -4.51,-1.45 -0.929,-0.97 -1.394,-2.31 -1.394,-4 0,-1.78 0.486,-3.14 1.456,-4.1 0.97,-0.96 2.453,-1.44 4.448,-1.44 h 2.091 c 2.051,0 3.895,0.06 5.535,0.17 1.641,0.11 2.993,0.22 4.059,0.33 v -2.71 c 0,-0.25 -0.027,-0.5 -0.082,-0.76 -0.054,-0.26 -0.218,-0.47 -0.492,-0.63 -0.273,-0.17 -0.737,-0.25 -1.394,-0.25 h -2.05 c -2.979,0 -5.466,0.05 -7.462,0.14 -1.995,0.1 -3.348,0.19 -4.059,0.27 l -0.451,-3.12 c 0,-0.38 1.039,-0.61 3.116,-0.69 2.078,-0.08 5.549,-0.13 10.414,-0.13 h 2.05 c 1.367,0 2.419,0.2 3.157,0.58 0.739,0.38 1.265,0.86 1.579,1.43 0.314,0.58 0.506,1.16 0.574,1.75 0.068,0.58 0.102,1.08 0.102,1.49 v 13.12 h -3.362 l -1.599,-0.82 c -1.148,0.19 -2.528,0.38 -4.141,0.56 -1.612,0.17 -3.457,0.26 -5.535,0.26 z m 1.066,-3.52 h 9.389 c 0.602,0 0.957,-0.06 1.066,-0.17 0.11,-0.11 0.164,-0.45 0.164,-1.02 v -3.16 h -10.619 c -0.738,0 -1.25,0.18 -1.537,0.53 -0.287,0.36 -0.431,0.92 -0.431,1.68 0,0.77 0.164,1.32 0.492,1.64 0.329,0.33 0.82,0.5 1.476,0.5 z m 25.338,3.52 c -1.366,0 -2.418,-0.18 -3.157,-0.53 -0.738,-0.36 -1.264,-0.81 -1.578,-1.35 -0.314,-0.55 -0.506,-1.12 -0.574,-1.73 -0.068,-0.6 -0.103,-1.14 -0.103,-1.64 v -7.87 c 0,-0.41 0.035,-0.91 0.103,-1.49 0.068,-0.59 0.26,-1.17 0.574,-1.75 0.314,-0.57 0.847,-1.05 1.599,-1.43 0.752,-0.38 1.797,-0.58 3.136,-0.58 h 2.091 c 2.515,0 4.545,0.05 6.089,0.15 1.544,0.09 2.726,0.2 3.546,0.31 v -8.08 h 5.002 v 25.99 h -3.362 l -1.599,-0.82 c -1.148,0.19 -2.528,0.38 -4.141,0.56 -1.612,0.17 -3.471,0.26 -5.576,0.26 z m 1.558,-3.52 h 8.897 c 0.575,0 0.93,-0.07 1.066,-0.21 0.137,-0.14 0.205,-0.48 0.205,-1.02 v -9.8 c -0.929,-0.06 -2.104,-0.12 -3.526,-0.19 -1.421,-0.07 -2.938,-0.1 -4.551,-0.1 h -2.091 c -1.312,0 -1.968,0.55 -1.968,1.64 v 8.04 c 0,1.09 0.656,1.64 1.968,1.64 z m 25.502,3.52 c -1.366,0 -2.418,-0.18 -3.157,-0.53 -0.738,-0.36 -1.264,-0.81 -1.578,-1.35 -0.314,-0.55 -0.506,-1.12 -0.574,-1.73 -0.068,-0.6 -0.103,-1.14 -0.103,-1.64 v -7.87 c 0,-0.41 0.035,-0.91 0.103,-1.49 0.068,-0.59 0.26,-1.17 0.574,-1.75 0.314,-0.57 0.847,-1.05 1.599,-1.43 0.752,-0.38 1.797,-0.58 3.136,-0.58 h 2.091 c 2.515,0 4.545,0.05 6.089,0.15 1.544,0.09 2.726,0.2 3.546,0.31 v -8.08 h 5.002 v 25.99 h -3.362 l -1.599,-0.82 c -1.148,0.19 -2.528,0.38 -4.141,0.56 -1.612,0.17 -3.471,0.26 -5.576,0.26 z m 1.558,-3.52 h 8.897 c 0.575,0 0.93,-0.07 1.066,-0.21 0.137,-0.14 0.205,-0.48 0.205,-1.02 v -9.8 c -0.929,-0.06 -2.104,-0.12 -3.526,-0.19 -1.421,-0.07 -2.938,-0.1 -4.551,-0.1 h -2.091 c -1.312,0 -1.968,0.55 -1.968,1.64 v 8.04 c 0,1.09 0.656,1.64 1.968,1.64 z m 20.5,3.52 v -18.37 h 3.362 l 1.558,0.82 c 0.711,-0.38 1.476,-0.68 2.296,-0.9 0.821,-0.22 1.859,-0.33 3.116,-0.33 1.996,0 3.615,0.22 4.859,0.66 1.244,0.44 2.07,0.77 2.48,0.98 l -1.435,3.57 c -0.328,-0.16 -0.867,-0.37 -1.619,-0.63 -0.752,-0.26 -1.633,-0.5 -2.645,-0.72 -1.011,-0.22 -2.118,-0.33 -3.321,-0.33 h -0.451 c -1.312,0 -2.166,0.26 -2.562,0.78 -0.396,0.52 -0.608,1.38 -0.636,2.58 v 11.89 z m 25.543,0 c -1.366,0 -2.418,-0.18 -3.157,-0.53 -0.738,-0.36 -1.264,-0.81 -1.578,-1.35 -0.314,-0.55 -0.506,-1.12 -0.574,-1.73 -0.068,-0.6 -0.103,-1.14 -0.103,-1.64 v -7.87 c 0,-0.41 0.035,-0.91 0.103,-1.49 0.068,-0.59 0.26,-1.17 0.574,-1.75 0.314,-0.57 0.847,-1.05 1.599,-1.43 0.752,-0.38 1.797,-0.58 3.136,-0.58 h 8.815 c 1.805,0 3.219,0.18 4.244,0.52 1.025,0.34 1.749,0.89 2.173,1.66 0.424,0.76 0.635,1.79 0.635,3.07 v 6.07 h -7.175 c -2.46,0 -4.462,-0.05 -6.006,-0.16 -1.544,-0.11 -2.576,-0.18 -3.096,-0.21 v 2.26 c -0.027,1.09 0.629,1.64 1.968,1.64 h 2.091 c 1.477,0 2.918,-0.02 4.326,-0.06 1.408,-0.05 2.699,-0.1 3.874,-0.17 1.176,-0.07 2.119,-0.13 2.829,-0.18 l 1.64,2.66 c 0,0.85 -2.692,1.27 -8.077,1.27 z m -0.41,-10.58 h 11.275 v -2.62 c 0,-0.55 -0.061,-0.93 -0.184,-1.15 -0.123,-0.22 -0.485,-0.35 -1.087,-0.41 -0.601,-0.05 -1.626,-0.08 -3.075,-0.08 h -4.961 c -1.312,0 -1.968,0.55 -1.968,1.64 z m 25.461,10.58 c -1.831,0 -3.129,-0.09 -3.895,-0.28 -0.765,-0.2 -1.148,-0.39 -1.148,-0.58 l 1.23,-3.07 c 0.793,0.08 2.249,0.17 4.367,0.26 2.118,0.1 4.735,0.15 7.851,0.15 h 2.05 c 0.684,0 1.114,-0.19 1.292,-0.56 0.178,-0.37 0.266,-0.86 0.266,-1.49 0,-0.63 -0.102,-1.14 -0.307,-1.52 -0.205,-0.38 -0.622,-0.57 -1.251,-0.57 h -10.086 c -1.913,0 -3.293,-0.37 -4.141,-1.09 -0.847,-0.73 -1.271,-1.81 -1.271,-3.26 v -1.64 c 0,-0.38 0.041,-0.83 0.123,-1.35 0.083,-0.52 0.287,-1.04 0.615,-1.56 0.329,-0.52 0.861,-0.95 1.599,-1.29 0.739,-0.34 1.763,-0.52 3.075,-0.52 h 11.316 c 1.641,0 2.802,0.1 3.485,0.29 0.684,0.19 1.025,0.38 1.025,0.58 l -0.41,3.07 c -0.792,-0.08 -2.254,-0.17 -4.387,-0.27 -2.132,-0.09 -4.742,-0.14 -7.831,-0.14 h -2.05 c -0.683,0 -1.113,0.19 -1.291,0.55 -0.178,0.37 -0.267,0.8 -0.267,1.3 0,0.51 0.089,0.95 0.267,1.29 0.178,0.34 0.608,0.51 1.291,0.51 h 10.086 c 1.859,0 3.226,0.38 4.1,1.15 0.875,0.76 1.312,1.73 1.312,2.91 v 2.42 c 0,0.49 -0.034,1.01 -0.102,1.56 -0.068,0.54 -0.266,1.05 -0.595,1.53 -0.328,0.48 -0.86,0.87 -1.599,1.17 -0.738,0.3 -1.776,0.45 -3.116,0.45 z m 26.158,0 c -1.831,0 -3.129,-0.09 -3.895,-0.28 -0.765,-0.2 -1.148,-0.39 -1.148,-0.58 l 1.23,-3.07 c 0.793,0.08 2.249,0.17 4.367,0.26 2.118,0.1 4.735,0.15 7.851,0.15 h 2.05 c 0.684,0 1.114,-0.19 1.292,-0.56 0.178,-0.37 0.266,-0.86 0.266,-1.49 0,-0.63 -0.102,-1.14 -0.307,-1.52 -0.205,-0.38 -0.622,-0.57 -1.251,-0.57 h -10.086 c -1.913,0 -3.293,-0.37 -4.141,-1.09 -0.847,-0.73 -1.271,-1.81 -1.271,-3.26 v -1.64 c 0,-0.38 0.041,-0.83 0.123,-1.35 0.083,-0.52 0.287,-1.04 0.615,-1.56 0.329,-0.52 0.861,-0.95 1.599,-1.29 0.739,-0.34 1.763,-0.52 3.075,-0.52 h 11.316 c 1.641,0 2.802,0.1 3.485,0.29 0.684,0.19 1.025,0.38 1.025,0.58 l -0.41,3.07 c -0.792,-0.08 -2.254,-0.17 -4.387,-0.27 -2.132,-0.09 -4.742,-0.14 -7.831,-0.14 h -2.05 c -0.683,0 -1.113,0.19 -1.291,0.55 -0.178,0.37 -0.267,0.8 -0.267,1.3 0,0.51 0.089,0.95 0.267,1.29 0.178,0.34 0.608,0.51 1.291,0.51 h 10.086 c 1.859,0 3.226,0.38 4.1,1.15 0.875,0.76 1.312,1.73 1.312,2.91 v 2.42 c 0,0.49 -0.034,1.01 -0.102,1.56 -0.068,0.54 -0.266,1.05 -0.595,1.53 -0.328,0.48 -0.86,0.87 -1.599,1.17 -0.738,0.3 -1.776,0.45 -3.116,0.45 z m 33.456,-20.95 c -1.011,0 -1.749,-0.2 -2.214,-0.61 -0.464,-0.41 -0.697,-1.1 -0.697,-2.05 0,-0.99 0.226,-1.68 0.677,-2.07 0.451,-0.4 1.196,-0.6 2.234,-0.6 1.039,0 1.791,0.2 2.255,0.6 0.465,0.39 0.697,1.08 0.697,2.07 0,0.93 -0.232,1.6 -0.697,2.03 -0.464,0.42 -1.216,0.63 -2.255,0.63 z m -2.501,20.95 v -18.37 h 5.002 v 18.37 z m 15.006,0 c -1.831,0 -3.129,-0.09 -3.895,-0.28 -0.765,-0.2 -1.148,-0.39 -1.148,-0.58 l 1.23,-3.07 c 0.793,0.08 2.249,0.17 4.367,0.26 2.118,0.1 4.735,0.15 7.851,0.15 h 2.05 c 0.684,0 1.114,-0.19 1.292,-0.56 0.178,-0.37 0.266,-0.86 0.266,-1.49 0,-0.63 -0.102,-1.14 -0.307,-1.52 -0.205,-0.38 -0.622,-0.57 -1.251,-0.57 H 832.51 c -1.913,0 -3.293,-0.37 -4.141,-1.09 -0.847,-0.73 -1.271,-1.81 -1.271,-3.26 v -1.64 c 0,-0.38 0.041,-0.83 0.123,-1.35 0.083,-0.52 0.287,-1.04 0.615,-1.56 0.329,-0.52 0.861,-0.95 1.599,-1.29 0.739,-0.34 1.763,-0.52 3.075,-0.52 h 11.316 c 1.641,0 2.802,0.1 3.485,0.29 0.684,0.19 1.025,0.38 1.025,0.58 l -0.41,3.07 c -0.792,-0.08 -2.254,-0.17 -4.387,-0.27 -2.132,-0.09 -4.742,-0.14 -7.831,-0.14 h -2.05 c -0.683,0 -1.113,0.19 -1.291,0.55 -0.178,0.37 -0.267,0.8 -0.267,1.3 0,0.51 0.089,0.95 0.267,1.29 0.178,0.34 0.608,0.51 1.291,0.51 h 10.086 c 1.859,0 3.226,0.38 4.1,1.15 0.875,0.76 1.312,1.73 1.312,2.91 v 2.42 c 0,0.49 -0.034,1.01 -0.102,1.56 -0.068,0.54 -0.266,1.05 -0.595,1.53 -0.328,0.48 -0.86,0.87 -1.599,1.17 -0.738,0.3 -1.776,0.45 -3.116,0.45 z m 30.545,0 v -18.37 h 3.362 l 1.558,0.82 c 0.711,-0.38 1.476,-0.68 2.296,-0.9 0.821,-0.22 1.859,-0.33 3.116,-0.33 1.996,0 3.615,0.22 4.859,0.66 1.244,0.44 2.07,0.77 2.48,0.98 l -1.435,3.57 c -0.328,-0.16 -0.867,-0.37 -1.619,-0.63 -0.752,-0.26 -1.633,-0.5 -2.645,-0.72 -1.011,-0.22 -2.118,-0.33 -3.321,-0.33 h -0.451 c -1.312,0 -2.166,0.26 -2.562,0.78 -0.396,0.52 -0.608,1.38 -0.636,2.58 v 11.89 z m 25.543,0 c -1.366,0 -2.418,-0.18 -3.157,-0.53 -0.738,-0.36 -1.264,-0.81 -1.578,-1.35 -0.314,-0.55 -0.506,-1.12 -0.574,-1.73 -0.068,-0.6 -0.103,-1.14 -0.103,-1.64 v -7.87 c 0,-0.41 0.035,-0.91 0.103,-1.49 0.068,-0.59 0.26,-1.17 0.574,-1.75 0.314,-0.57 0.847,-1.05 1.599,-1.43 0.752,-0.38 1.797,-0.58 3.136,-0.58 h 8.815 c 1.805,0 3.219,0.18 4.244,0.52 1.025,0.34 1.749,0.89 2.173,1.66 0.424,0.76 0.635,1.79 0.635,3.07 v 6.07 h -7.175 c -2.46,0 -4.462,-0.05 -6.006,-0.16 -1.544,-0.11 -2.576,-0.18 -3.096,-0.21 v 2.26 c -0.027,1.09 0.629,1.64 1.968,1.64 h 2.091 c 1.477,0 2.918,-0.02 4.326,-0.06 1.408,-0.05 2.699,-0.1 3.874,-0.17 1.176,-0.07 2.119,-0.13 2.829,-0.18 l 1.64,2.66 c 0,0.85 -2.692,1.27 -8.077,1.27 z m -0.41,-10.58 h 11.275 v -2.62 c 0,-0.55 -0.061,-0.93 -0.184,-1.15 -0.123,-0.22 -0.485,-0.35 -1.087,-0.41 -0.601,-0.05 -1.626,-0.08 -3.075,-0.08 h -4.961 c -1.312,0 -1.968,0.55 -1.968,1.64 z m 37.556,18.21 v -8.45 c -1.175,0.22 -2.562,0.41 -4.161,0.58 -1.599,0.16 -3.437,0.24 -5.515,0.24 h -2.05 c -1.366,0 -2.418,-0.18 -3.157,-0.53 -0.738,-0.36 -1.264,-0.81 -1.578,-1.35 -0.314,-0.55 -0.506,-1.12 -0.574,-1.73 -0.068,-0.6 -0.103,-1.14 -0.103,-1.64 v -7.87 c 0,-0.41 0.035,-0.91 0.103,-1.49 0.068,-0.59 0.26,-1.17 0.574,-1.75 0.314,-0.57 0.847,-1.05 1.599,-1.43 0.752,-0.38 1.797,-0.58 3.136,-0.58 h 2.091 c 2.898,0 5.146,0.06 6.745,0.17 1.599,0.11 2.767,0.23 3.505,0.37 l 1.025,-0.54 h 3.362 v 26 z m -10.168,-11.15 h 8.897 c 0.602,0 0.964,-0.06 1.087,-0.19 0.123,-0.12 0.184,-0.47 0.184,-1.04 v -9.8 c -0.929,-0.06 -2.104,-0.12 -3.526,-0.19 -1.421,-0.07 -2.938,-0.1 -4.551,-0.1 h -2.091 c -0.792,0 -1.318,0.14 -1.578,0.41 -0.26,0.27 -0.39,0.68 -0.39,1.23 v 8.04 c -0.027,0.54 0.096,0.95 0.369,1.23 0.274,0.27 0.807,0.41 1.599,0.41 z m 25.502,3.52 c -1.339,0 -2.384,-0.18 -3.136,-0.53 -0.752,-0.36 -1.285,-0.81 -1.599,-1.35 -0.314,-0.55 -0.506,-1.12 -0.574,-1.73 -0.068,-0.6 -0.103,-1.14 -0.103,-1.64 v -13.12 h 5.002 v 13.21 c -0.027,0.6 0.171,1.02 0.595,1.27 0.424,0.24 0.881,0.37 1.373,0.37 h 8.118 c 0.602,0 0.957,-0.06 1.066,-0.17 0.11,-0.11 0.164,-0.46 0.164,-1.06 v -13.62 h 5.002 v 18.37 h -3.362 l -1.558,-0.82 c -1.093,0.22 -2.384,0.41 -3.874,0.58 -1.49,0.16 -3.164,0.24 -5.023,0.24 z m 23.739,-20.95 c -1.011,0 -1.749,-0.2 -2.214,-0.61 -0.464,-0.41 -0.697,-1.1 -0.697,-2.05 0,-0.99 0.226,-1.68 0.677,-2.07 0.451,-0.4 1.196,-0.6 2.234,-0.6 1.039,0 1.791,0.2 2.255,0.6 0.465,0.39 0.697,1.08 0.697,2.07 0,0.93 -0.232,1.6 -0.697,2.03 -0.464,0.42 -1.216,0.63 -2.255,0.63 z m -2.501,20.95 v -18.37 h 5.002 v 18.37 z m 10.373,0 v -18.37 h 3.362 l 1.558,0.82 c 0.711,-0.38 1.476,-0.68 2.296,-0.9 0.821,-0.22 1.859,-0.33 3.116,-0.33 1.996,0 3.615,0.22 4.859,0.66 1.244,0.44 2.07,0.77 2.48,0.98 l -1.435,3.57 c -0.328,-0.16 -0.867,-0.37 -1.619,-0.63 -0.752,-0.26 -1.633,-0.5 -2.645,-0.72 -1.011,-0.22 -2.118,-0.33 -3.321,-0.33 h -0.451 c -1.312,0 -2.166,0.26 -2.562,0.78 -0.396,0.52 -0.608,1.38 -0.636,2.58 v 11.89 z m 25.543,0 c -1.366,0 -2.418,-0.18 -3.157,-0.53 -0.738,-0.36 -1.264,-0.81 -1.578,-1.35 -0.314,-0.55 -0.506,-1.12 -0.574,-1.73 -0.068,-0.6 -0.103,-1.14 -0.103,-1.64 v -7.87 c 0,-0.41 0.035,-0.91 0.103,-1.49 0.068,-0.59 0.26,-1.17 0.574,-1.75 0.314,-0.57 0.847,-1.05 1.599,-1.43 0.752,-0.38 1.797,-0.58 3.136,-0.58 h 8.817 c 1.8,0 3.22,0.18 4.24,0.52 1.03,0.34 1.75,0.89 2.17,1.66 0.43,0.76 0.64,1.79 0.64,3.07 v 6.07 h -7.17 c -2.46,0 -4.47,-0.05 -6.01,-0.16 -1.545,-0.11 -2.577,-0.18 -3.097,-0.21 v 2.26 c -0.027,1.09 0.629,1.64 1.968,1.64 h 2.089 c 1.48,0 2.92,-0.02 4.33,-0.06 1.41,-0.05 2.7,-0.1 3.87,-0.17 1.18,-0.07 2.12,-0.13 2.83,-0.18 l 1.64,2.66 c 0,0.85 -2.69,1.27 -8.08,1.27 z m -0.41,-10.58 h 11.277 v -2.62 c 0,-0.55 -0.06,-0.93 -0.19,-1.15 -0.12,-0.22 -0.48,-0.35 -1.08,-0.41 -0.6,-0.05 -1.63,-0.08 -3.08,-0.08 h -4.959 c -1.312,0 -1.968,0.55 -1.968,1.64 z m 25.827,10.58 c -1.36,0 -2.42,-0.18 -3.15,-0.53 -0.74,-0.36 -1.27,-0.81 -1.58,-1.35 -0.32,-0.55 -0.51,-1.12 -0.58,-1.73 -0.06,-0.6 -0.1,-1.14 -0.1,-1.64 v -7.87 c 0,-0.41 0.04,-0.91 0.1,-1.49 0.07,-0.59 0.26,-1.17 0.58,-1.75 0.31,-0.57 0.85,-1.05 1.6,-1.43 0.75,-0.38 1.79,-0.58 3.13,-0.58 h 2.09 c 2.52,0 4.55,0.05 6.09,0.15 1.55,0.09 2.73,0.2 3.55,0.31 v -8.08 h 5 v 25.99 h -3.36 l -1.6,-0.82 c -1.15,0.19 -2.53,0.38 -4.14,0.56 -1.61,0.17 -3.47,0.26 -5.58,0.26 z m 1.56,-3.52 h 8.9 c 0.57,0 0.93,-0.07 1.06,-0.21 0.14,-0.14 0.21,-0.48 0.21,-1.02 v -9.8 c -0.93,-0.06 -2.11,-0.12 -3.53,-0.19 -1.42,-0.07 -2.93,-0.1 -4.55,-0.1 h -2.09 c -1.31,0 -1.97,0.55 -1.97,1.64 v 8.04 c 0,1.09 0.66,1.64 1.97,1.64 z m 24.23,3.52 c -1.01,0 -1.75,-0.2 -2.21,-0.61 -0.47,-0.41 -0.7,-1.1 -0.7,-2.05 0,-0.99 0.23,-1.68 0.68,-2.07 0.45,-0.4 1.19,-0.6 2.23,-0.6 1.04,0 1.79,0.2 2.26,0.6 0.46,0.39 0.69,1.08 0.69,2.07 0,0.93 -0.23,1.6 -0.69,2.03 -0.47,0.42 -1.22,0.63 -2.26,0.63 z m 25.63,0 c -1.94,0 -3.46,-0.27 -4.55,-0.82 -1.1,-0.54 -1.86,-1.36 -2.3,-2.46 -0.44,-1.09 -0.66,-2.44 -0.66,-4.06 v -9.14 c 0,-2.62 0.59,-4.56 1.77,-5.8 1.17,-1.24 3.09,-1.87 5.74,-1.87 h 12.34 c 1.88,0 3.33,0.11 4.32,0.31 1,0.21 1.5,0.42 1.5,0.64 l -0.82,3.4 c -0.46,-0.08 -1.84,-0.17 -4.12,-0.27 -2.28,-0.09 -5.6,-0.14 -9.94,-0.14 h -2.09 c -2.19,0 -3.28,0.97 -3.28,2.91 v 10.46 c 0,0.92 0.24,1.64 0.71,2.15 0.48,0.5 1.34,0.76 2.57,0.76 h 1.68 c 2.62,0 4.84,-0.02 6.64,-0.06 1.8,-0.05 3.29,-0.08 4.47,-0.11 v -5.57 l -2.46,0.04 -5.37,0.41 v -4.02 h 13.2 v 11.52 l 0.41,0.86 c 0,0.22 -0.57,0.42 -1.72,0.6 -1.15,0.17 -3.09,0.26 -5.82,0.26 z m 29.68,0 c -1.83,0 -3.19,-0.37 -4.08,-1.1 -0.89,-0.74 -1.33,-1.95 -1.33,-3.61 v -8.41 c 0,-0.41 0.03,-0.91 0.1,-1.49 0.07,-0.59 0.26,-1.17 0.58,-1.75 0.31,-0.57 0.84,-1.05 1.59,-1.43 0.76,-0.38 1.8,-0.58 3.14,-0.58 h 11.32 c 1.36,0 2.42,0.2 3.15,0.58 0.74,0.38 1.27,0.86 1.58,1.43 0.32,0.58 0.51,1.16 0.58,1.75 0.07,0.58 0.1,1.08 0.1,1.49 v 7.87 c 0,0.5 -0.03,1.04 -0.1,1.64 -0.07,0.61 -0.27,1.18 -0.6,1.73 -0.33,0.54 -0.86,0.99 -1.6,1.35 -0.73,0.35 -1.77,0.53 -3.11,0.53 z m 1.56,-3.52 h 8.2 c 1.34,0 2.01,-0.55 2.01,-1.64 v -8.04 c 0,-1.09 -0.67,-1.64 -2.01,-1.64 h -8.2 c -1.31,0 -1.97,0.55 -1.97,1.64 v 8.04 c 0,1.09 0.66,1.64 1.97,1.64 z m 33.99,3.52 c -2.08,0 -3.58,-0.48 -4.51,-1.45 -0.93,-0.97 -1.4,-2.31 -1.4,-4 0,-1.78 0.49,-3.14 1.46,-4.1 0.97,-0.96 2.45,-1.44 4.45,-1.44 h 2.09 c 2.05,0 3.89,0.06 5.53,0.17 1.64,0.11 3,0.22 4.06,0.33 v -2.71 c 0,-0.25 -0.02,-0.5 -0.08,-0.76 -0.05,-0.26 -0.22,-0.47 -0.49,-0.63 -0.27,-0.17 -0.74,-0.25 -1.39,-0.25 h -2.05 c -2.98,0 -5.47,0.05 -7.47,0.14 -1.99,0.1 -3.34,0.19 -4.06,0.27 l -0.45,-3.12 c 0,-0.38 1.04,-0.61 3.12,-0.69 2.08,-0.08 5.55,-0.13 10.41,-0.13 h 2.05 c 1.37,0 2.42,0.2 3.16,0.58 0.74,0.38 1.26,0.86 1.58,1.43 0.31,0.58 0.5,1.16 0.57,1.75 0.07,0.58 0.11,1.08 0.11,1.49 v 13.12 h -3.37 l -1.6,-0.82 c -1.14,0.19 -2.52,0.38 -4.14,0.56 -1.61,0.17 -3.45,0.26 -5.53,0.26 z m 1.06,-3.52 h 9.39 c 0.6,0 0.96,-0.06 1.07,-0.17 0.11,-0.11 0.16,-0.45 0.16,-1.02 v -3.16 h -10.62 c -0.73,0 -1.25,0.18 -1.53,0.53 -0.29,0.36 -0.43,0.92 -0.43,1.68 0,0.77 0.16,1.32 0.49,1.64 0.33,0.33 0.82,0.5 1.47,0.5 z m 20.34,3.52 v -26.57 h 5 v 9.02 c 1.15,-0.21 2.53,-0.41 4.14,-0.57 1.62,-0.16 3.46,-0.25 5.54,-0.25 h 2.05 c 1.37,0 2.42,0.2 3.16,0.58 0.73,0.38 1.26,0.86 1.57,1.43 0.32,0.58 0.51,1.16 0.58,1.75 0.07,0.58 0.1,1.08 0.1,1.49 v 13.12 h -5 v -13.2 c 0,-1.09 -0.66,-1.64 -1.97,-1.64 h -8.94 c -0.52,0 -0.85,0.05 -1,0.14 -0.15,0.1 -0.23,0.35 -0.23,0.76 v 13.94 z m 31.86,0 c -1.37,0 -2.42,-0.18 -3.16,-0.53 -0.74,-0.36 -1.26,-0.81 -1.58,-1.35 -0.31,-0.55 -0.5,-1.12 -0.57,-1.73 -0.07,-0.6 -0.1,-1.14 -0.1,-1.64 v -7.87 c 0,-0.41 0.03,-0.91 0.1,-1.49 0.07,-0.59 0.26,-1.17 0.57,-1.75 0.32,-0.57 0.85,-1.05 1.6,-1.43 0.75,-0.38 1.8,-0.58 3.14,-0.58 h 8.81 c 1.81,0 3.22,0.18 4.25,0.52 1.02,0.34 1.75,0.89 2.17,1.66 0.42,0.76 0.63,1.79 0.63,3.07 v 6.07 h -7.17 c -2.46,0 -4.46,-0.05 -6.01,-0.16 -1.54,-0.11 -2.57,-0.18 -3.09,-0.21 v 2.26 c -0.03,1.09 0.63,1.64 1.97,1.64 h 2.09 c 1.47,0 2.91,-0.02 4.32,-0.06 1.41,-0.05 2.7,-0.1 3.88,-0.17 1.17,-0.07 2.11,-0.13 2.83,-0.18 l 1.64,2.66 c 0,0.85 -2.7,1.27 -8.08,1.27 z m -0.41,-10.58 h 11.27 v -2.62 c 0,-0.55 -0.06,-0.93 -0.18,-1.15 -0.13,-0.22 -0.49,-0.35 -1.09,-0.41 -0.6,-0.05 -1.62,-0.08 -3.07,-0.08 h -4.96 c -1.32,0 -1.97,0.55 -1.97,1.64 z m 26.11,10.58 c -2.07,0 -3.58,-0.48 -4.51,-1.45 -0.92,-0.97 -1.39,-2.31 -1.39,-4 0,-1.78 0.49,-3.14 1.46,-4.1 0.97,-0.96 2.45,-1.44 4.44,-1.44 h 2.1 c 2.05,0 3.89,0.06 5.53,0.17 1.64,0.11 2.99,0.22 4.06,0.33 v -2.71 c 0,-0.25 -0.03,-0.5 -0.08,-0.76 -0.06,-0.26 -0.22,-0.47 -0.49,-0.63 -0.28,-0.17 -0.74,-0.25 -1.4,-0.25 h -2.05 c -2.98,0 -5.47,0.05 -7.46,0.14 -2,0.1 -3.35,0.19 -4.06,0.27 l -0.45,-3.12 c 0,-0.38 1.04,-0.61 3.12,-0.69 2.07,-0.08 5.54,-0.13 10.41,-0.13 h 2.05 c 1.37,0 2.42,0.2 3.16,0.58 0.73,0.38 1.26,0.86 1.58,1.43 0.31,0.58 0.5,1.16 0.57,1.75 0.07,0.58 0.1,1.08 0.1,1.49 v 13.12 h -3.36 l -1.6,-0.82 c -1.15,0.19 -2.53,0.38 -4.14,0.56 -1.61,0.17 -3.46,0.26 -5.54,0.26 z m 1.07,-3.52 h 9.39 c 0.6,0 0.96,-0.06 1.07,-0.17 0.1,-0.11 0.16,-0.45 0.16,-1.02 v -3.16 h -10.62 c -0.74,0 -1.25,0.18 -1.54,0.53 -0.28,0.36 -0.43,0.92 -0.43,1.68 0,0.77 0.17,1.32 0.49,1.64 0.33,0.33 0.82,0.5 1.48,0.5 z m 25.34,3.52 c -1.37,0 -2.42,-0.18 -3.16,-0.53 -0.74,-0.36 -1.26,-0.81 -1.58,-1.35 -0.31,-0.55 -0.5,-1.12 -0.57,-1.73 -0.07,-0.6 -0.1,-1.14 -0.1,-1.64 v -7.87 c 0,-0.41 0.03,-0.91 0.1,-1.49 0.07,-0.59 0.26,-1.17 0.57,-1.75 0.32,-0.57 0.85,-1.05 1.6,-1.43 0.75,-0.38 1.8,-0.58 3.14,-0.58 h 2.09 c 2.51,0 4.54,0.05 6.09,0.15 1.54,0.09 2.72,0.2 3.54,0.31 v -8.08 h 5.01 v 25.99 h -3.37 l -1.59,-0.82 c -1.15,0.19 -2.53,0.38 -4.15,0.56 -1.61,0.17 -3.47,0.26 -5.57,0.26 z m 1.56,-3.52 h 8.89 c 0.58,0 0.93,-0.07 1.07,-0.21 0.14,-0.14 0.2,-0.48 0.2,-1.02 v -9.8 c -0.92,-0.06 -2.1,-0.12 -3.52,-0.19 -1.42,-0.07 -2.94,-0.1 -4.55,-0.1 h -2.09 c -1.32,0 -1.97,0.55 -1.97,1.64 v 8.04 c 0,1.09 0.65,1.64 1.97,1.64 z m 21.56,9.18 c -0.57,0.16 -0.91,0.09 -1,-0.22 -0.1,-0.32 -0.05,-0.64 0.14,-0.97 0.17,-0.22 0.39,-0.57 0.68,-1.06 0.29,-0.5 0.57,-1.05 0.84,-1.66 0.27,-0.62 0.45,-1.24 0.53,-1.87 -0.71,-0.11 -1.23,-0.37 -1.56,-0.78 -0.32,-0.41 -0.49,-1.04 -0.49,-1.89 0,-0.95 0.23,-1.63 0.68,-2.02 0.45,-0.4 1.19,-0.6 2.23,-0.6 1.12,0 1.96,0.24 2.52,0.72 0.56,0.48 0.84,1.26 0.84,2.36 0,0.79 -0.17,1.62 -0.51,2.5 -0.34,0.87 -0.78,1.7 -1.33,2.48 -0.55,0.78 -1.13,1.43 -1.76,1.97 -0.63,0.53 -1.23,0.88 -1.81,1.04 z m 20.17,-5.66 v -26.57 h 5.01 v 9.02 c 1.14,-0.21 2.52,-0.41 4.14,-0.57 1.61,-0.16 3.46,-0.25 5.53,-0.25 h 2.05 c 1.37,0 2.42,0.2 3.16,0.58 0.74,0.38 1.26,0.86 1.58,1.43 0.31,0.58 0.5,1.16 0.57,1.75 0.07,0.58 0.1,1.08 0.1,1.49 v 13.12 h -5 v -13.2 c 0,-1.09 -0.65,-1.64 -1.97,-1.64 h -8.93 c -0.52,0 -0.86,0.05 -1.01,0.14 -0.15,0.1 -0.22,0.35 -0.22,0.76 v 13.94 z m 32.15,0 c -2.08,0 -3.58,-0.48 -4.51,-1.45 -0.93,-0.97 -1.4,-2.31 -1.4,-4 0,-1.78 0.49,-3.14 1.46,-4.1 0.97,-0.96 2.45,-1.44 4.45,-1.44 h 2.09 c 2.05,0 3.89,0.06 5.53,0.17 1.64,0.11 3,0.22 4.06,0.33 v -2.71 c 0,-0.25 -0.02,-0.5 -0.08,-0.76 -0.05,-0.26 -0.22,-0.47 -0.49,-0.63 -0.27,-0.17 -0.74,-0.25 -1.39,-0.25 h -2.05 c -2.98,0 -5.47,0.05 -7.47,0.14 -1.99,0.1 -3.34,0.19 -4.06,0.27 l -0.45,-3.12 c 0,-0.38 1.04,-0.61 3.12,-0.69 2.08,-0.08 5.55,-0.13 10.41,-0.13 h 2.05 c 1.37,0 2.42,0.2 3.16,0.58 0.74,0.38 1.26,0.86 1.58,1.43 0.31,0.58 0.5,1.16 0.57,1.75 0.07,0.58 0.11,1.08 0.11,1.49 v 13.12 h -3.37 l -1.6,-0.82 c -1.14,0.19 -2.52,0.38 -4.14,0.56 -1.61,0.17 -3.45,0.26 -5.53,0.26 z m 1.06,-3.52 h 9.39 c 0.6,0 0.96,-0.06 1.07,-0.17 0.11,-0.11 0.16,-0.45 0.16,-1.02 v -3.16 h -10.62 c -0.73,0 -1.25,0.18 -1.53,0.53 -0.29,0.36 -0.43,0.92 -0.43,1.68 0,0.77 0.16,1.32 0.49,1.64 0.33,0.33 0.82,0.5 1.47,0.5 z m 26.74,3.52 -8.45,-18.37 h 5.74 l 4.72,11.32 1.06,2.95 h 0.41 l 1.07,-2.95 4.79,-11.32 h 5.58 l -0.66,2.51 -7.7,15.86 z m 22.79,0 c -1.36,0 -2.42,-0.18 -3.15,-0.53 -0.74,-0.36 -1.27,-0.81 -1.58,-1.35 -0.32,-0.55 -0.51,-1.12 -0.58,-1.73 -0.07,-0.6 -0.1,-1.14 -0.1,-1.64 v -7.87 c 0,-0.41 0.03,-0.91 0.1,-1.49 0.07,-0.59 0.26,-1.17 0.58,-1.75 0.31,-0.57 0.84,-1.05 1.6,-1.43 0.75,-0.38 1.79,-0.58 3.13,-0.58 h 8.82 c 1.8,0 3.22,0.18 4.24,0.52 1.03,0.34 1.75,0.89 2.17,1.66 0.43,0.76 0.64,1.79 0.64,3.07 v 6.07 h -7.18 c -2.46,0 -4.46,-0.05 -6,-0.16 -1.55,-0.11 -2.58,-0.18 -3.1,-0.21 v 2.26 c -0.02,1.09 0.63,1.64 1.97,1.64 h 2.09 c 1.48,0 2.92,-0.02 4.33,-0.06 1.4,-0.05 2.7,-0.1 3.87,-0.17 1.18,-0.07 2.12,-0.13 2.83,-0.18 l 1.64,2.66 c 0,0.85 -2.69,1.27 -8.08,1.27 z m -0.41,-10.58 h 11.28 v -2.62 c 0,-0.55 -0.06,-0.93 -0.19,-1.15 -0.12,-0.22 -0.48,-0.35 -1.08,-0.41 -0.6,-0.05 -1.63,-0.08 -3.08,-0.08 h -4.96 c -1.31,0 -1.97,0.55 -1.97,1.64 z m 30.75,10.58 v -14.84 h -2.54 v -3.48 h 2.54 v -3.65 c 0,-0.93 0.19,-1.79 0.56,-2.59 0.37,-0.79 0.98,-1.43 1.84,-1.92 0.86,-0.5 2,-0.74 3.42,-0.74 h 2.05 c 3.28,0 5.64,0.15 7.08,0.45 1.43,0.3 2.15,0.56 2.15,0.78 l -1.23,3.11 c -0.47,-0.19 -1.3,-0.37 -2.5,-0.55 -1.2,-0.18 -2.65,-0.27 -4.35,-0.27 h -2.05 c -0.68,0 -1.18,0.13 -1.49,0.37 -0.32,0.25 -0.48,0.67 -0.48,1.27 v 3.74 h 8.53 v 3.48 h -8.53 v 14.84 z m 23.33,0 c -1.34,0 -2.38,-0.18 -3.13,-0.53 -0.76,-0.36 -1.29,-0.81 -1.6,-1.35 -0.32,-0.55 -0.51,-1.12 -0.58,-1.73 -0.07,-0.6 -0.1,-1.14 -0.1,-1.64 v -13.12 h 5 v 13.21 c -0.03,0.6 0.17,1.02 0.6,1.27 0.42,0.24 0.88,0.37 1.37,0.37 h 8.12 c 0.6,0 0.95,-0.06 1.06,-0.17 0.11,-0.11 0.17,-0.46 0.17,-1.06 v -13.62 h 5 v 18.37 h -3.36 l -1.56,-0.82 c -1.09,0.22 -2.39,0.41 -3.87,0.58 -1.49,0.16 -3.17,0.24 -5.03,0.24 z m 20.83,0 v -18.37 h 3.36 l 1.64,0.82 c 1.15,-0.21 2.53,-0.41 4.14,-0.57 1.62,-0.16 3.46,-0.25 5.54,-0.25 h 2.05 c 1.36,0 2.42,0.2 3.15,0.58 0.74,0.38 1.27,0.86 1.58,1.43 0.32,0.58 0.51,1.16 0.58,1.75 0.07,0.58 0.1,1.08 0.1,1.49 v 13.12 h -5 v -13.2 c 0,-1.09 -0.66,-1.64 -1.97,-1.64 h -8.94 c -0.52,0 -0.85,0.05 -1,0.14 -0.15,0.1 -0.23,0.35 -0.23,0.76 v 13.94 z m 30.59,0 c -1.02,0 -1.75,-0.2 -2.22,-0.61 -0.46,-0.41 -0.7,-1.1 -0.7,-2.05 0,-0.99 0.23,-1.68 0.68,-2.07 0.45,-0.4 1.2,-0.6 2.24,-0.6 1.03,0 1.79,0.2 2.25,0.6 0.47,0.39 0.7,1.08 0.7,2.07 0,0.93 -0.23,1.6 -0.7,2.03 -0.46,0.42 -1.22,0.63 -2.25,0.63 z m -566.16,-96.29 c 2.807,0 5.209,-1 7.206,-2.99 1.998,-2 2.997,-4.4 2.997,-7.21 0,-2.806 -0.999,-5.208 -2.997,-7.206 -1.997,-1.998 -4.399,-2.997 -7.206,-2.997 -2.806,0 -5.208,0.999 -7.206,2.997 -1.997,1.998 -2.996,4.4 -2.996,7.206 0,2.81 0.999,5.21 2.996,7.21 1.998,1.99 4.4,2.99 7.206,2.99 z m 160.65,-94.489 5.35,-5.422 c 1.24,-1.284 1.87,-2.723 1.89,-4.317 0.03,-1.593 -0.58,-3.008 -1.82,-4.245 l -1.71,-1.712 c -1.14,-1.142 -2.51,-1.665 -4.1,-1.57 -1.59,0.095 -2.99,0.737 -4.18,1.927 l -5.35,5.279 z m -129.899,94.489 c 2.806,0 5.208,-1 7.206,-2.99 1.998,-2 2.996,-4.4 2.996,-7.21 0,-2.806 -0.998,-5.208 -2.996,-7.206 -1.998,-1.998 -4.4,-2.997 -7.206,-2.997 -2.806,0 -5.208,0.999 -7.206,2.997 -1.998,1.998 -2.997,4.4 -2.997,7.206 0,2.81 0.999,5.21 2.997,7.21 1.998,1.99 4.4,2.99 7.206,2.99 z m 30.75,0 c 2.807,0 5.209,-1 7.206,-2.99 1.998,-2 2.997,-4.4 2.997,-7.21 0,-2.806 -0.999,-5.208 -2.997,-7.206 -1.997,-1.998 -4.399,-2.997 -7.206,-2.997 -2.806,0 -5.208,0.999 -7.206,2.997 -1.997,1.998 -2.996,4.4 -2.996,7.206 0,2.81 0.999,5.21 2.996,7.21 1.998,1.99 4.4,2.99 7.206,2.99 z"
   opacity="1"
   fill="#80a7bc"
   id="path9" />
</g>
</svg>
