<!--?xml version="1.0" encoding="utf-8"?-->
<!-- Generator: Adobe Illustrator 18.1.1, SVG Export Plug-In . SVG Version: 6.00 Build 0)  -->

<svg version="1.1" id="_x31_0" xmlns="http://www.w3.org/2000/svg" xmlns:xlink="http://www.w3.org/1999/xlink" x="0px" y="0px" viewBox="0 0 512 512" style="width: 256px; height: 256px; opacity: 1;" xml:space="preserve">
<style type="text/css">
	.st0{fill:#374149;}
</style>
<g>
	<polygon class="st0" points="0.186,253.59 0.186,253.59 0,253.59 0,501.681 124.51,501.681 124.51,253.59 0.562,253.59 	" style="fill: rgb(0, 180, 180);"></polygon>
	<path class="st0" d="M511.866,309.162c-0.834-9.554-7.049-17.813-15.308-22.542l-17.396-9.794c-4.009-2.256-4.39-7.878-0.725-10.66
		l17.102-12.947c7.05-5.286,11.041-13.36,11.041-22.081c0.09-6.958-2.786-13.731-8.074-19.113
		c-5.844-5.844-13.826-9.187-21.894-9.187H327.176c-5.427,0-9.577-4.838-8.757-10.202l12.616-82.206
		c0.838-5.196,1.21-10.483,1.21-15.955c0-36.741-24.586-84.154-50.843-84.154c-9.422,0.014-16.848,8.028-16.146,17.423l0.589,7.951
		c1.758,23.534-1.522,61.521-7.289,84.407c-1.672,6.773-4.362,13.36-7.982,19.485c0,0-11.62,30.874-26.787,62.097
		c-1.106,2.27-2.306,4.49-3.479,6.722c-1.386,2.646-2.822,5.255-4.304,7.842c-2.646,4.616-5.437,9.142-8.377,13.568
		c-1.422,2.138-2.877,4.25-4.358,6.338c-3.154,4.43-6.456,8.753-9.899,12.962c-1.785,2.178-3.602,4.33-5.463,6.442
		c-3.122,3.556-6.347,7.013-9.677,10.383c-2.867,2.89-5.79,5.726-8.811,8.481c-1.364,1.246-2.691,2.537-4.086,3.756v175.076
		c27.653,24.382,53.928,31.069,71.075,32.287l190.566-0.094c14.379-0.925,25.791-13.265,25.791-28.02
		c0-4.358-1.114-8.626-3.248-12.802l-8.87-17.17c-1.989-3.851,0.349-8.522,4.621-9.233l17.478-2.926
		c13.718-2.293,24.839-13.686,24.998-27.594c0.067-6.242-1.881-12.204-5.658-17.206l-12.006-16.033
		c-2.65-3.538-0.997-8.63,3.226-9.935l18.986-5.858C504.907,334.677,513.166,322.618,511.866,309.162z" style="fill: rgb(0, 180, 180);"></path>
</g>
</svg>
